<!--?xml version="1.0" standalone="no"?-->
              <svg id="sw-js-blob-svg" viewBox="0 0 100 100" xmlns="http://www.w3.org/2000/svg" version="1.1">
                    <defs> 
                        <linearGradient id="sw-gradient" x1="0" x2="1" y1="1" y2="0">
                            <stop id="stop1" stop-color="rgba(248, 117, 55, 1)" offset="0%"></stop>
                            <stop id="stop2" stop-color="rgba(251, 168, 31, 1)" offset="100%"></stop>
                        </linearGradient>
                    </defs>
                <path fill="url(#sw-gradient)" d="M19.7,-23.6C27,-17.3,35.7,-12.5,37.7,-5.9C39.8,0.7,35.3,9.3,29.8,15.6C24.2,22,17.7,26.3,10.6,28.7C3.5,31,-4.1,31.5,-10.9,29.3C-17.8,27.1,-23.9,22.3,-28.7,15.7C-33.4,9.2,-36.6,1.1,-35.5,-6.4C-34.4,-14,-28.9,-20.9,-22.2,-27.4C-15.6,-33.8,-7.8,-39.7,-0.8,-38.7C6.1,-37.8,12.3,-29.9,19.7,-23.6Z" width="100%" height="100%" transform="translate(50 50)" style="transition: 0.3s;" stroke-width="0"></path>
              </svg>