<!--?xml version="1.0" standalone="no"?-->
              <svg id="sw-js-blob-svg" viewBox="0 0 100 100" xmlns="http://www.w3.org/2000/svg" version="1.1">
                    <defs> 
                        <linearGradient id="sw-gradient" x1="0" x2="1" y1="1" y2="0">
                            <stop id="stop1" stop-color="rgba(248, 117, 55, 1)" offset="0%"></stop>
                            <stop id="stop2" stop-color="rgba(251, 168, 31, 1)" offset="100%"></stop>
                        </linearGradient>
                    </defs>
                <path fill="url(#sw-gradient)" d="M20.3,-23.5C27.4,-18.2,35,-12.9,38.4,-5.1C41.8,2.8,41.1,13,36.7,21.9C32.4,30.8,24.5,38.3,15.6,40.6C6.6,42.9,-3.4,40,-13.4,36.5C-23.4,33,-33.2,28.9,-36.9,21.7C-40.6,14.5,-38,4.1,-34.7,-4.6C-31.3,-13.3,-27.1,-20.3,-21.2,-25.8C-15.3,-31.3,-7.6,-35.3,-0.5,-34.6C6.6,-34,13.2,-28.8,20.3,-23.5Z" width="100%" height="100%" transform="translate(50 50)" style="transition: 0.3s;" stroke-width="0"></path>
              </svg>